# xmcd
#
# Track frame offsets:
#	150
#	28329
#	48336
#	70897
#	84068
#	100548
#	117568
#	128205
#	146216
#
# Disc length: 2471 seconds
#
# Revision: 1
# Processed by: cddbd v1.4b42PL1 Copyright (c) Steve Scherf et al.
# Submitted via: audiograbber 1.80
#
DISCID=7a09a509
DTITLE=Eyesburn - Dog life
DYEAR=1900
DGENRE=
TTITLE0=Smorior
TTITLE1=It`s coming out
TTITLE2=Desert time
TTITLE3=Stark blind
TTITLE4=Your grace
TTITLE5=Exodus
TTITLE6=Never again
TTITLE7=Sister
TTITLE8=Voiceless one
EXTD=
EXTT0=
EXTT1=
EXTT2=
EXTT3=
EXTT4=
EXTT5=
EXTT6=
EXTT7=
EXTT8=
PLAYORDER=
